<svg width="300" height="300" xmlns="http://www.w3.org/2000/svg" preserveAspectRatio="xMidYMid meet" version="1.0">
 <metadata>Created by potrace 1.10, written by Peter Selinger 2001-2011</metadata>

 <g>
  <title>Layer 1</title>
  <g id="svg_1" fill="#000000" transform="translate(0.000000,300.000000) scale(0.100000,-0.100000)">
   <path id="svg_2" d="m1439,2455c-61,-33 -73,-125 -24,-183l24,-28l-14,-150c-25,-258 -49,-356 -116,-455c-74,-110 -136,-139 -215,-100c-77,37 -133,98 -176,189c-35,77 -37,85 -23,105c30,44 11,127 -37,161c-30,21 -93,20 -129,-1c-17,-10 -35,-34 -45,-59c-15,-39 -15,-44 4,-87c16,-35 28,-48 57,-58l38,-14l-6,-105c-7,-157 -46,-230 -131,-245c-73,-14 -138,51 -249,248c-76,135 -77,139 -66,176c14,48 -1,102 -38,131c-32,25 -108,27 -141,4c-29,-20 -52,-65 -52,-101c0,-36 34,-91 63,-102c28,-11 40,-25 57,-71c48,-125 445,-1008 465,-1035c19,-24 46,-40 113,-64c74,-27 125,-37 337,-61c308,-36 421,-37 712,-5c264,29 398,63 459,117c43,38 91,132 180,350c37,89 120,284 185,431c66,148 122,280 125,293c4,14 19,31 34,39c103,53 90,195 -21,225c-87,24 -159,-55 -137,-150l10,-46l-84,-149c-121,-212 -195,-270 -277,-213c-73,49 -90,98 -91,249l0,95l35,17c127,61 42,258 -93,214c-72,-24 -98,-98 -62,-182c12,-28 10,-37 -23,-107c-61,-132 -166,-215 -252,-199c-54,10 -66,18 -110,70c-67,81 -94,149 -119,304c-14,78 -27,188 -31,244c-7,101 -7,103 19,134c82,98 -41,236 -155,174zm117,-51c22,-21 25,-31 19,-62c-4,-20 -16,-49 -27,-64c-17,-25 -19,-38 -13,-106c12,-144 26,-265 32,-274c2,-5 -1,-8 -6,-8c-6,0 -11,6 -11,13c0,8 -12,24 -26,38l-26,24l-26,-30l-25,-30l6,70c4,39 10,115 13,170c6,96 5,103 -20,152c-19,36 -25,58 -20,77c14,57 87,74 130,30zm709,-449c39,-38 33,-71 -22,-122l-48,-43l-3,-80c-2,-44 -7,-80 -11,-80c-4,0 -16,6 -26,14c-14,10 -25,11 -38,4c-30,-16 -30,-3 1,58c40,81 45,107 27,150c-20,48 -19,66 6,98c28,35 80,36 114,1zm-1416,-11c24,-31 25,-47 10,-107c-11,-37 -9,-48 11,-92c46,-102 52,-121 39,-107c-18,17 -54,15 -70,-5c-12,-14 -15,-6 -20,62c-5,76 -6,79 -46,114c-54,48 -66,72 -53,107c23,59 93,74 129,28zm-573,-9c23,-23 24,-30 18,-84l-6,-59l76,-135c42,-74 95,-159 117,-187l41,-52l-38,26c-46,31 -52,32 -79,6l-22,-21l-28,63c-15,35 -38,86 -51,113c-12,28 -32,75 -44,105c-14,37 -37,70 -71,101c-55,52 -62,80 -28,123c28,35 80,36 115,1zm2564,5c38,-38 24,-88 -38,-145c-24,-21 -46,-56 -61,-97c-13,-34 -39,-94 -56,-133c-18,-38 -40,-87 -49,-108l-16,-39l-24,29c-22,24 -27,26 -45,16c-36,-22 -44,-14 -18,17c29,33 171,283 181,317c4,12 3,37 -2,55c-10,38 0,76 25,96c26,19 80,15 103,-8zm-1330,-17c0,-35 63,-240 91,-296c112,-222 364,-246 497,-48c41,61 52,62 52,6c0,-69 23,-129 67,-176c96,-103 220,-101 322,5c19,20 39,36 43,36c5,0 -5,-26 -21,-57c-27,-54 -227,-489 -257,-560l-14,-32l-66,25c-164,62 -377,87 -724,88c-238,0 -297,-3 -435,-24c-134,-19 -266,-52 -335,-84c-12,-5 -45,58 -160,310c-80,174 -147,321 -149,327c-2,6 21,-10 51,-36c56,-48 120,-77 167,-77c43,1 103,34 148,83c42,45 55,79 68,170c3,26 9,47 13,47c4,0 16,-16 27,-36c29,-53 108,-120 166,-139c125,-42 281,40 345,180c29,62 84,249 84,282c0,13 5,23 10,23c6,0 10,-8 10,-17zm-461,-410c2,-2 2,-5 -1,-8c-7,-7 -85,53 -92,71c-3,8 16,-2 42,-23c26,-20 49,-39 51,-40zm961,27c-19,-17 -38,-30 -43,-30c-5,0 8,15 29,34c21,19 41,33 43,30c3,-2 -11,-18 -29,-34zm301,-138c24,-12 36,-22 26,-22c-27,0 -97,50 -113,81c-23,45 -16,45 15,2c16,-22 48,-50 72,-61zm81,-512c-44,-104 -67,-145 -103,-182c-25,-26 -52,-48 -61,-48c-11,0 -6,10 17,33c22,22 32,40 29,53c-3,13 4,24 25,36c23,13 43,44 86,134c30,64 57,115 60,112c2,-2 -21,-64 -53,-138zm-482,-81c206,-17 317,-39 327,-67c11,-28 -43,-46 -202,-68c-78,-11 -215,-17 -475,-19c-370,-4 -503,2 -661,30c-101,17 -141,33 -137,53c14,70 673,111 1148,71zm-1180,-68c0,-14 7,-33 17,-43c22,-24 13,-32 -15,-12c-21,15 -62,83 -62,103c0,6 13,2 30,-7c20,-11 30,-25 30,-41zm275,-112c158,-22 845,-18 1026,6c110,14 149,17 149,12c0,-29 -462,-87 -682,-87c-79,0 -172,4 -208,10c-36,5 -87,11 -115,14c-189,21 -235,27 -278,37c-66,15 -75,34 -11,25c27,-4 81,-12 119,-17z"/>
  </g>
  <path id="svg_3" d="m42.99925,153.99882l16.66718,10.33387c0.33275,0.33276 17.66602,-7.00055 17.66602,-7.33388c0,-0.33333 8.66663,-21.33325 8.33388,-21.66601c0.33275,0.33276 9.33272,8.66606 8.99997,8.3333c0.33275,0.33276 12.66604,8.33272 12.66604,8.66606c0,0.33333 21.33325,-3.33332 21.0005,-3.66608c0.33276,0.33276 20.99934,-43.00041 20.66659,-43.33316c0.33276,0.33275 4.66607,2.99941 4.33332,2.66666c0.33276,0.33275 12.66604,32.9993 12.33329,32.66654c0.33276,0.33276 17.33269,11.99938 16.99993,11.66662c0.33276,0.33276 12.33271,-0.00058 11.99995,-0.33333c0.33276,0.33276 18.66602,-16.33385 18.33326,-16.6666c0.33276,0.33276 3.66608,2.33275 3.33332,1.99999c0.33276,0.33276 3.66608,16.66603 3.33332,16.33327c0.33276,0.33276 10.99938,10.33272 10.66663,9.99996c0.33276,0.33276 11.66605,-0.33391 11.99938,-0.66724c0.33333,-0.33333 14.99994,-8.99997 14.66718,-9.33272c0.33276,0.33276 3.66608,3.66608 3.33275,3.66608c-0.33333,0 -29.33322,61.66643 -29.66598,61.33367c0.33276,0.33276 -4.66722,3.99941 -4.99998,3.66665c0.33276,0.33276 -63.33366,-8.66721 -63.66642,-8.99997c0.33276,0.33276 -73.33363,3.66608 -73.66638,3.33332c0.33275,0.33276 -13.66719,4.99941 -13.99995,4.66665c0.33275,0.33276 -8.00055,-4.00056 -8.3333,-4.33332c0.33275,0.33276 -24.66715,-55.00036 -24.9999,-55.33312c0.33275,0.33276 1.99941,-7.66721 1.99941,-7.66721z" opacity="NaN" stroke="#000" fill="#000000"/>
 </g>
</svg>